<svg width="500" height="500" viewBox="0 0 500 500" fill="none" xmlns="http://www.w3.org/2000/svg">
<rect width="500" height="500" fill="#121212"/>
<path d="M141.865 152.456C136.72 154.738 134.224 155.94 129.368 158.48C110.202 180.828 95.4513 202.673 83.5776 229.691C83.4558 229.691 83.3797 229.691 83.2579 229.721C89.1795 203.586 101.282 184.144 118.879 164.413C114.723 166.938 112.729 168.277 108.893 171.046C57.2118 220.32 54.5935 290.162 99.8507 345.11C103.428 348.274 104.752 349.339 109.365 352.595C98.4806 337.032 92.3307 324.923 85.8762 307.063C84.6736 296.87 84.6736 291.394 85.6327 280.197C92.1175 309.223 105.605 337.488 123.629 361.068C128.987 363.715 131.742 364.841 137.329 366.743C111.938 325.714 98.0544 283.97 95.36 235.746C106.868 204.879 122.106 178.88 141.865 152.456Z" fill="#75EC21"/>
<path d="M168.064 139.54C140.252 143.298 115.637 218.951 114.145 254.67C112.759 287.971 133.554 375.459 162.172 376.053C175.447 376.327 169.708 266.141 170.347 250.487C170.88 237.373 180.059 137.928 168.064 139.54ZM146.691 325.516C138.531 326.535 129.444 271.556 130.144 253.894C130.905 234.407 141.789 187.217 150.771 186.943C157.073 186.745 154.059 241.481 153.648 252.099C153.039 268.057 152.75 324.755 146.676 325.516H146.691Z" fill="#75EC21"/>
<path d="M220.049 194.139C216.837 226.01 216.061 258.2 216.609 290.207C216.472 290.223 216.396 290.238 216.243 290.253C214.569 271.237 213.397 252.191 212.666 233.114C211.022 199.037 211.418 165.706 212.712 131.66C207.034 132.649 204.218 133.197 198.646 134.398C180.379 213.718 173.544 293.919 192.633 373.877C197.626 373.68 200.107 373.497 205.009 373.025C200.549 349.659 198.068 326.748 196.713 303.001C195.48 270.811 195.586 238.408 198.068 206.279C198.22 206.263 198.296 206.248 198.448 206.233C198.6 224.716 199.361 243.185 200.701 261.607C204.385 298.544 209.256 335.328 218.801 371.276C223.87 370.485 226.351 370.029 231.162 369.055C224.997 287.697 236.931 208.667 241.346 127.735C235.972 128.268 233.293 128.587 227.95 129.302C226.047 150.996 222.317 172.461 220.034 194.124L220.049 194.139Z" fill="#75EC21"/>
<path d="M281.869 188.541C279.448 219.605 276.678 250.654 273.42 281.643C273.298 281.658 273.238 281.673 273.116 281.688C273.907 263.174 274.395 244.645 274.516 226.116C273.847 192.633 273.085 159.043 267.56 125.971C261.821 126.184 258.943 126.336 253.174 126.746C252.185 207.054 238.53 286.328 240.813 366.956C245.076 365.936 247.146 365.404 251.119 364.324C251.774 341.018 253.113 317.818 254.818 294.558C257.299 262.824 259.385 231.045 261.151 199.266C261.303 199.266 261.364 199.25 261.516 199.235C261.942 217.399 262.095 235.563 262.079 253.742C262.475 289.568 262.399 325.379 261.927 361.205C265.748 360.034 267.56 359.44 270.909 358.33C283.589 283.909 305.312 201.7 295.919 125.94C290.713 125.758 288.08 125.712 282.797 125.712C285.72 146.675 283.33 167.577 281.884 188.541H281.869Z" fill="#75EC21"/>
<path d="M309.772 260.162C315.481 259.736 318.19 259.584 323.229 259.478C327.902 242.318 331.967 225.431 335.514 207.998C329.486 207.709 326.319 207.648 319.773 207.663C321.889 193.302 322.681 186.335 323.473 173.328C331.419 173.647 334.555 174.21 342.988 174.484C344.906 160.488 343.917 143.252 338.939 129.956C326.654 128.085 320.352 127.324 307.245 126.488C318.86 200.939 294.138 284 277.333 356.109C284.487 353.599 281.321 355.074 292.662 350.465C300.106 334.218 306.895 317.697 313.091 300.932C304.916 302.91 304.581 302.286 298.934 303.184C302.876 288.945 306.53 274.569 309.772 260.162Z" fill="#75EC21"/>
<path d="M383.389 140.529C378.898 138.977 376.569 138.262 371.744 136.908C382.795 158.206 372.2 184.95 365.563 205.67C365.426 205.67 365.365 205.67 365.228 205.67C369.156 183.003 372.429 155.24 360.662 134.079C356.003 132.999 353.613 132.512 348.742 131.599C369.156 202.11 331.403 284.533 300.912 346.936C305.388 344.928 307.61 343.878 311.994 341.672C322.072 324.558 331.069 306.82 338.984 288.625C346.124 276.12 349.564 269.837 355.912 257.576C348.529 285.187 338.863 309.832 324.934 334.735C329.592 332.088 331.875 330.704 336.381 327.859C360.129 291.835 372.992 255.02 377.178 212.105C384.607 191.385 397.775 161.538 383.374 140.499L383.389 140.529Z" fill="#75EC21"/>
<path d="M384.698 140.985C395.461 155.103 396.831 163.272 397.486 178.12C402.494 178.667 404.945 178.956 409.679 179.58C414.733 232.079 377.133 284.061 345.606 321.835C349.61 319.096 351.574 317.697 355.425 314.821C386.997 281.11 428.723 231.729 421.157 181.284C425.602 182.014 427.733 182.395 431.858 183.216C429.362 171.396 426.5 164.824 411.521 153.536C402.387 147.816 396.892 145.291 384.698 140.985Z" fill="#75EC21"/>
</svg>
