<svg width="800" height="800" viewBox="0 0 800 800" fill="none" xmlns="http://www.w3.org/2000/svg">
<rect width="800" height="800" fill="#111111"/>
<path d="M318.291 507.694C339.348 485.378 368.393 471.572 400.5 471.572C432.607 471.572 461.652 485.378 482.709 507.694L400.5 594.875L318.291 507.694ZM280.366 467.447C311.127 434.841 353.588 414.674 400.5 414.674C447.412 414.674 489.895 434.841 520.634 467.447L571.214 413.784C527.537 367.458 467.166 338.804 400.5 338.804C333.834 338.804 273.463 367.459 229.786 413.806L280.366 467.447ZM191.84 373.559C245.242 316.922 319.029 281.906 400.5 281.906C481.971 281.906 555.758 316.922 609.16 373.559L661 318.571C594.334 247.867 502.247 204.125 400.5 204.125C298.753 204.125 206.666 247.867 140 318.571L191.84 373.559Z" fill="url(#paint0_linear_46_2)"/>
<defs>
<linearGradient id="paint0_linear_46_2" x1="400.5" y1="204.125" x2="400.5" y2="594.875" gradientUnits="userSpaceOnUse">
<stop stop-color="#ADFF02"/>
<stop offset="1" stop-color="#E7FFB6"/>
</linearGradient>
</defs>
</svg>
