<svg width="28" height="28" viewBox="0 0 28 28" fill="none" xmlns="http://www.w3.org/2000/svg">
<path d="M11.5 1.44338C13.047 0.550211 14.953 0.550212 16.5 1.44338L23.6244 5.55662C25.1714 6.44979 26.1244 8.10042 26.1244 9.88675V18.1132C26.1244 19.8996 25.1714 21.5502 23.6244 22.4434L16.5 26.5566C14.953 27.4498 13.047 27.4498 11.5 26.5566L4.37564 22.4434C2.82864 21.5502 1.87564 19.8996 1.87564 18.1132V9.88675C1.87564 8.10042 2.82864 6.44979 4.37564 5.55662L11.5 1.44338Z" fill="#75EC21"/>
<path d="M12.86 18.268C12.16 18.716 11.348 18.94 10.424 18.94C9.472 18.94 8.75333 18.6973 8.268 18.212C7.792 17.7267 7.554 17.0453 7.554 16.168V12.794H6V11.268H7.554V9.658L9.766 9.392V11.268H12.16L11.936 12.794H9.766V16.168C9.766 16.532 9.85 16.7933 10.018 16.952C10.186 17.1107 10.4567 17.19 10.83 17.19C11.2967 17.19 11.7307 17.078 12.132 16.854L12.86 18.268Z" fill="#171717"/>
<path d="M21.8565 15.86C21.8565 16.896 21.4879 17.6287 20.7505 18.058C20.0225 18.4873 19.0612 18.702 17.8665 18.702H14.6465V9H17.7265C18.8372 9 19.7332 9.196 20.4145 9.588C21.0959 9.97067 21.4365 10.6007 21.4365 11.478C21.4365 12.0287 21.2685 12.4813 20.9325 12.836C20.5965 13.1907 20.1719 13.4333 19.6585 13.564C20.2745 13.6667 20.7925 13.9 21.2125 14.264C21.6419 14.6187 21.8565 15.1507 21.8565 15.86ZM19.1265 11.716C19.1265 11.3333 19.0052 11.058 18.7625 10.89C18.5292 10.7127 18.1559 10.624 17.6425 10.624H16.9425V12.878H17.7265C18.2119 12.878 18.5665 12.7893 18.7905 12.612C19.0145 12.4253 19.1265 12.1267 19.1265 11.716ZM19.4905 15.762C19.4905 15.2767 19.3505 14.9313 19.0705 14.726C18.7999 14.5207 18.4032 14.418 17.8805 14.418H16.9425V17.022H17.7825C18.3145 17.022 18.7299 16.9333 19.0285 16.756C19.3365 16.5787 19.4905 16.2473 19.4905 15.762Z" fill="#171717"/>
</svg>
