<svg width="30" height="30" viewBox="0 0 30 30" fill="none" xmlns="http://www.w3.org/2000/svg">
<g clip-path="url(#clip0_17_2037)">
<path d="M13.612 0.58875C14.6858 -0.19625 16.1445 -0.19625 17.2195 0.58875C19.7933 2.47125 19.2395 2.29125 22.427 2.28125C23.7583 2.2775 24.9383 3.135 25.3445 4.40125C26.3195 7.435 25.9783 6.96625 28.5633 8.83125C29.642 9.61 30.0933 10.9975 29.6783 12.2625C28.6858 15.2837 28.6808 14.7037 29.6783 17.7375C30.0945 19.0012 29.6433 20.39 28.5633 21.1687C25.9783 23.0325 26.3208 22.5637 25.3445 25.5987C24.9383 26.8662 23.757 27.7238 22.427 27.7188C19.2383 27.7088 19.792 27.5287 17.2195 29.4112C16.1458 30.1962 14.687 30.1962 13.612 29.4112C11.0383 27.53 11.592 27.7075 8.40454 27.7188C7.07329 27.7225 5.89329 26.865 5.48704 25.5987C4.51204 22.5612 4.84829 23.03 2.26829 21.1687C1.18954 20.39 0.738287 19.0025 1.15329 17.7375C2.14704 14.7162 2.15079 15.2962 1.15329 12.2625C0.737037 10.9962 1.18829 9.60875 2.26704 8.83C4.84454 6.96875 4.51079 7.44125 5.48579 4.4C5.89204 3.1325 7.07329 2.275 8.40329 2.28C11.5845 2.29 11.0233 2.48125 13.612 0.58875Z" fill="#E5DDD1"/>
<path d="M13.672 19.566C12.972 20.014 12.16 20.238 11.236 20.238C10.284 20.238 9.56533 19.9953 9.08 19.51C8.604 19.0247 8.366 18.3433 8.366 17.466V14.092H6.812V12.566H8.366V10.956L10.578 10.69V12.566H12.972L12.748 14.092H10.578V17.466C10.578 17.83 10.662 18.0913 10.83 18.25C10.998 18.4087 11.2687 18.488 11.642 18.488C12.1087 18.488 12.5427 18.376 12.944 18.152L13.672 19.566ZM22.6685 17.158C22.6685 18.194 22.2999 18.9267 21.5625 19.356C20.8345 19.7853 19.8732 20 18.6785 20H15.4585V10.298H18.5385C19.6492 10.298 20.5452 10.494 21.2265 10.886C21.9079 11.2687 22.2485 11.8987 22.2485 12.776C22.2485 13.3267 22.0805 13.7793 21.7445 14.134C21.4085 14.4887 20.9839 14.7313 20.4705 14.862C21.0865 14.9647 21.6045 15.198 22.0245 15.562C22.4539 15.9167 22.6685 16.4487 22.6685 17.158ZM19.9385 13.014C19.9385 12.6313 19.8172 12.356 19.5745 12.188C19.3412 12.0107 18.9679 11.922 18.4545 11.922H17.7545V14.176H18.5385C19.0239 14.176 19.3785 14.0873 19.6025 13.91C19.8265 13.7233 19.9385 13.4247 19.9385 13.014ZM20.3025 17.06C20.3025 16.5747 20.1625 16.2293 19.8825 16.024C19.6119 15.8187 19.2152 15.716 18.6925 15.716H17.7545V18.32H18.5945C19.1265 18.32 19.5419 18.2313 19.8405 18.054C20.1485 17.8767 20.3025 17.5453 20.3025 17.06Z" fill="#171717"/>
</g>
<defs>
<clipPath id="clip0_17_2037">
<rect width="30" height="30" fill="white"/>
</clipPath>
</defs>
</svg>
