<svg width="50" height="50" viewBox="0 0 50 50" fill="none" xmlns="http://www.w3.org/2000/svg">
<rect width="50" height="50" fill="#F5F3EE"/>
<g clip-path="url(#clip0_26_79)">
<path d="M12.1515 30.6947H9.8825C9.739 30.6947 9.6225 30.5842 9.6225 30.4482V20.5549C9.6225 20.4544 9.586 20.3658 9.513 20.2904C9.44 20.215 9.3505 20.1771 9.2445 20.1771H8.1685C8.062 20.1771 7.9725 20.215 7.8995 20.2904C7.8265 20.3658 7.79 20.4544 7.79 20.5549V30.4482C7.79 30.5842 7.6735 30.6947 7.53 30.6947H5.26C5.1165 30.6947 5 30.5842 5 30.4482V20.781C5 19.1195 5.823 18.2885 7.4705 18.2885H9.941C11.5875 18.2885 12.4115 19.1195 12.4115 20.781V30.4482C12.4115 30.5842 12.295 30.6947 12.1515 30.6947Z" fill="#333333"/>
<path d="M19.1465 18.4777H21.4155C21.559 18.4777 21.6755 18.5881 21.6755 18.7242V28.3913C21.6755 30.0528 20.852 30.8838 19.205 30.8838H16.7345C15.0875 30.8838 14.264 30.0533 14.264 28.3913V18.7242C14.264 18.5881 14.3805 18.4777 14.524 18.4777H16.793C16.9365 18.4777 17.053 18.5881 17.053 18.7242V28.6174C17.053 28.7184 17.0895 28.8066 17.1625 28.8819C17.2355 28.9573 17.325 28.9952 17.4315 28.9952H18.5075C18.6135 28.9952 18.7035 28.9573 18.776 28.8819C18.849 28.8066 18.8855 28.7184 18.8855 28.6174V18.7242C18.8855 18.5881 19.002 18.4777 19.1455 18.4777H19.1465Z" fill="#333333"/>
<path d="M22.851 20.4781V18.7242C22.851 18.5881 22.9675 18.4777 23.111 18.4777H29.564C29.7075 18.4777 29.824 18.5881 29.824 18.7242V20.4781C29.824 20.6142 29.7075 20.7246 29.564 20.7246H27.732V30.4482C27.732 30.5842 27.6155 30.6947 27.472 30.6947H25.203C25.0595 30.6947 24.943 30.5842 24.943 30.4482V20.7246H23.111C22.9675 20.7246 22.851 20.6142 22.851 20.4781Z" fill="#333333"/>
<path d="M33.888 25.6907V30.4325C33.888 30.5771 33.764 30.6947 33.6115 30.6947H31.3755C31.2225 30.6947 31.099 30.5771 31.099 30.4325V18.7398C31.099 18.5953 31.223 18.4777 31.3755 18.4777H36.06C37.7065 18.4777 38.5305 19.3087 38.5305 20.9702V22.3866C38.5305 23.394 38.152 24.0358 37.395 24.3127C38.059 24.5392 38.391 25.0555 38.391 25.8613V30.433C38.391 30.5776 38.267 30.6951 38.1145 30.6951H35.8785C35.7255 30.6951 35.602 30.5776 35.602 30.433V26.069C35.602 25.8173 35.4755 25.6912 35.2235 25.6912H33.8885L33.888 25.6907ZM33.888 20.2715V23.8405H35.3625C35.4685 23.8405 35.5585 23.8026 35.631 23.7272C35.7035 23.6518 35.7405 23.5637 35.7405 23.4632V20.6497C35.7405 20.5488 35.704 20.4606 35.631 20.3852C35.558 20.3099 35.4685 20.2719 35.3625 20.2719H33.888V20.2715Z" fill="#333333"/>
<path d="M43.1125 18.7242V30.4482C43.1125 30.5842 42.996 30.6947 42.8525 30.6947H40.5835C40.44 30.6947 40.3235 30.5842 40.3235 30.4482V18.7242C40.3235 18.5881 40.44 18.4777 40.5835 18.4777H42.8525C42.996 18.4777 43.1125 18.5881 43.1125 18.7242Z" fill="#333333"/>
<path d="M44.995 14.7674C44.594 16.5232 42.77 17.9088 40.6915 17.7353C40.505 17.7197 40.3785 17.549 40.4255 17.377C40.622 16.6588 41.005 16.0354 41.596 15.5258C42.517 14.7328 43.5915 14.4085 44.804 14.5218C44.9315 14.5337 45.0225 14.6484 44.9955 14.7674H44.995Z" fill="#333333"/>
<path d="M5.4885 35.455C5.4535 35.455 5.4255 35.4445 5.403 35.4237C5.381 35.4028 5.37 35.3772 5.37 35.3474V32.4225C5.37 32.3898 5.381 32.3628 5.403 32.3415C5.425 32.3206 5.4535 32.3102 5.4885 32.3102H5.863C5.9075 32.3102 5.9405 32.3216 5.9625 32.3438C5.9845 32.3661 5.999 32.3837 6.005 32.3955L6.92 34.0129L7.8445 32.3955C7.851 32.3837 7.865 32.3661 7.887 32.3438C7.909 32.3216 7.942 32.3102 7.9865 32.3102H8.356C8.391 32.3102 8.419 32.3206 8.4415 32.3415C8.4635 32.3623 8.47449 32.3893 8.47449 32.4225V35.3474C8.47449 35.3772 8.4635 35.4028 8.4415 35.4237C8.4195 35.4445 8.391 35.455 8.356 35.455H7.958C7.923 35.455 7.8955 35.4445 7.875 35.4237C7.8545 35.4028 7.844 35.3772 7.844 35.3474V33.4019L7.1805 34.6017C7.1645 34.6287 7.144 34.6519 7.119 34.6714C7.094 34.6908 7.0605 34.7008 7.0195 34.7008H6.825C6.781 34.7008 6.747 34.6913 6.723 34.6714C6.699 34.6515 6.6795 34.6287 6.6635 34.6017L6 33.4019V35.3474C6 35.3772 5.989 35.4028 5.967 35.4237C5.945 35.4445 5.918 35.455 5.8865 35.455H5.4885Z" fill="#333333"/>
<path d="M9.48449 35.455C9.45899 35.455 9.43649 35.446 9.41549 35.4279C9.39499 35.4099 9.38499 35.3877 9.38499 35.3606C9.38499 35.3488 9.38799 35.335 9.39449 35.3203L10.537 32.4225C10.5465 32.3927 10.5645 32.3666 10.5915 32.3438C10.6185 32.3216 10.6555 32.3102 10.703 32.3102H11.2195C11.267 32.3102 11.303 32.3216 11.3285 32.3438C11.354 32.3661 11.373 32.3927 11.3855 32.4225L12.528 35.3203C12.531 35.3355 12.533 35.3488 12.533 35.3606C12.533 35.3877 12.5235 35.4099 12.5045 35.4279C12.4855 35.446 12.4635 35.455 12.438 35.455H12.0255C11.981 35.455 11.949 35.4455 11.9285 35.4256C11.908 35.4061 11.8945 35.3872 11.8885 35.3696L11.6655 34.8216H10.2575L10.035 35.3696C10.0285 35.3877 10.015 35.4061 9.99449 35.4256C9.97399 35.445 9.94149 35.455 9.89749 35.455H9.48499H9.48449ZM10.423 34.3049H11.499L10.9585 32.9165L10.423 34.3049Z" fill="#333333"/>
<path d="M13.561 35.455C13.5295 35.455 13.5025 35.4445 13.4805 35.4237C13.4585 35.4028 13.4475 35.3772 13.4475 35.3474V32.4225C13.4475 32.3898 13.4585 32.3628 13.4805 32.3415C13.5025 32.3206 13.5295 32.3102 13.561 32.3102H14.7885C15.171 32.3102 15.4725 32.3941 15.694 32.5619C15.915 32.7297 16.026 32.9738 16.026 33.2943C16.026 33.5161 15.968 33.7001 15.853 33.847C15.7375 33.994 15.5835 34.1002 15.391 34.166L16.083 35.3118C16.0925 35.3298 16.0975 35.3464 16.0975 35.3611C16.0975 35.3881 16.087 35.4104 16.0665 35.4284C16.046 35.4464 16.023 35.4554 15.9975 35.4554H15.566C15.512 35.4554 15.471 35.4422 15.4425 35.4151C15.414 35.3881 15.392 35.3611 15.376 35.3341L14.7645 34.2694H14.1055V35.3478C14.1055 35.3777 14.095 35.4033 14.0745 35.4242C14.054 35.445 14.0265 35.4554 13.9915 35.4554H13.56L13.561 35.455ZM14.106 33.7612H14.7745C14.967 33.7612 15.111 33.72 15.206 33.6375C15.301 33.555 15.348 33.4393 15.348 33.2891C15.348 33.1388 15.3015 33.0217 15.2085 32.9364C15.115 32.8511 14.9705 32.8084 14.7745 32.8084H14.106V33.7607V33.7612Z" fill="#333333"/>
<path d="M17.2255 35.455C17.194 35.455 17.167 35.4445 17.145 35.4237C17.123 35.4028 17.112 35.3772 17.112 35.3474V32.4225C17.112 32.3898 17.123 32.3628 17.145 32.3415C17.167 32.3206 17.194 32.3102 17.2255 32.3102H17.6425C17.6775 32.3102 17.7055 32.3206 17.728 32.3415C17.75 32.3623 17.761 32.3893 17.761 32.4225V33.474L18.8325 32.3912C18.845 32.3761 18.8665 32.359 18.8965 32.3396C18.9265 32.3201 18.9665 32.3102 19.0175 32.3102H19.4865C19.512 32.3102 19.5345 32.3192 19.5555 32.3372C19.576 32.3552 19.5865 32.3775 19.5865 32.4045C19.5865 32.4254 19.58 32.4434 19.5675 32.4586L18.264 33.8153L19.658 35.3023C19.674 35.3203 19.6815 35.3398 19.6815 35.3606C19.6815 35.3877 19.671 35.4099 19.6505 35.4279C19.63 35.446 19.607 35.455 19.5815 35.455H19.0935C19.04 35.455 18.998 35.4436 18.968 35.4213C18.938 35.399 18.918 35.3829 18.9085 35.3744L17.7615 34.1836V35.3474C17.7615 35.3772 17.7505 35.4028 17.7285 35.4237C17.7065 35.4445 17.678 35.455 17.643 35.455H17.226H17.2255Z" fill="#333333"/>
<path d="M20.6955 35.455C20.664 35.455 20.637 35.4445 20.615 35.4237C20.593 35.4028 20.582 35.3772 20.582 35.3474V32.4225C20.582 32.3898 20.593 32.3628 20.615 32.3415C20.637 32.3206 20.664 32.3102 20.6955 32.3102H22.7815C22.816 32.3102 22.8445 32.3206 22.867 32.3415C22.889 32.3623 22.9 32.3893 22.9 32.4225V32.7193C22.9 32.7491 22.889 32.7747 22.867 32.7956C22.845 32.8165 22.8165 32.8269 22.7815 32.8269H21.222V33.6223H22.6775C22.712 33.6223 22.7405 33.6323 22.763 33.6517C22.785 33.6712 22.796 33.6977 22.796 33.7304V34.0091C22.796 34.0423 22.785 34.0684 22.763 34.0878C22.741 34.1073 22.7125 34.1172 22.6775 34.1172H21.222V34.9392H22.8195C22.854 34.9392 22.8825 34.9496 22.905 34.9705C22.927 34.9914 22.938 35.0184 22.938 35.0516V35.3483C22.938 35.3782 22.927 35.4038 22.905 35.4246C22.883 35.4455 22.8545 35.4559 22.8195 35.4559H20.696L20.6955 35.455Z" fill="#333333"/>
<path d="M24.848 35.455C24.8165 35.455 24.7895 35.4446 24.7675 35.4237C24.7455 35.4028 24.7345 35.3772 24.7345 35.3474V32.8629H23.8575C23.826 32.8629 23.799 32.8525 23.777 32.8316C23.755 32.8108 23.744 32.7852 23.744 32.7553V32.423C23.744 32.3903 23.755 32.3633 23.777 32.342C23.799 32.3211 23.826 32.3107 23.8575 32.3107H26.275C26.3095 32.3107 26.338 32.3211 26.3605 32.342C26.3825 32.3628 26.3935 32.3898 26.3935 32.423V32.7553C26.3935 32.7852 26.3825 32.8108 26.3605 32.8316C26.3385 32.8525 26.31 32.8629 26.275 32.8629H25.4025V35.3474C25.4025 35.3772 25.3915 35.4028 25.3695 35.4237C25.3475 35.4446 25.319 35.455 25.284 35.455H24.848Z" fill="#333333"/>
<path d="M27.46 35.455C27.4285 35.455 27.4015 35.4445 27.3795 35.4237C27.3575 35.4028 27.3465 35.3772 27.3465 35.3474V32.4225C27.3465 32.3898 27.3575 32.3628 27.3795 32.3415C27.4015 32.3206 27.4285 32.3102 27.46 32.3102H28.7305C28.977 32.3102 29.192 32.3472 29.375 32.4202C29.5585 32.4936 29.7005 32.6041 29.8015 32.7525C29.9025 32.9008 29.953 33.0857 29.953 33.3071C29.953 33.5285 29.9025 33.7167 29.8015 33.8622C29.7005 34.0077 29.558 34.1158 29.375 34.1879C29.192 34.2599 28.977 34.2955 28.7305 34.2955H28.024V35.3469C28.024 35.3767 28.014 35.4023 27.9935 35.4232C27.973 35.4441 27.945 35.4545 27.9105 35.4545H27.46V35.455ZM28.0145 33.7972H28.7065C28.8895 33.7972 29.0305 33.756 29.1285 33.6735C29.2265 33.591 29.2755 33.4692 29.2755 33.3076C29.2755 33.1578 29.2295 33.0374 29.138 32.9459C29.0465 32.8544 28.9025 32.8089 28.7065 32.8089H28.0145V33.7972Z" fill="#333333"/>
<path d="M31.058 35.455C31.0265 35.455 30.9995 35.4445 30.9775 35.4237C30.9555 35.4028 30.9445 35.3772 30.9445 35.3474V32.4178C30.9445 32.3879 30.9555 32.3623 30.9775 32.3415C30.9995 32.3206 31.0265 32.3102 31.058 32.3102H31.499C31.5305 32.3102 31.5575 32.3206 31.5795 32.3415C31.6015 32.3623 31.6125 32.3879 31.6125 32.4178V34.9202H33.115C33.15 34.9202 33.178 34.9307 33.2005 34.9515C33.223 34.9724 33.2335 34.9994 33.2335 35.0326V35.3469C33.2335 35.3767 33.2225 35.4023 33.2005 35.4232C33.1785 35.4441 33.15 35.4545 33.115 35.4545H31.0575L31.058 35.455Z" fill="#333333"/>
<path d="M33.9635 35.455C33.938 35.455 33.9155 35.446 33.8945 35.4279C33.874 35.4099 33.864 35.3877 33.864 35.3606C33.864 35.3488 33.867 35.335 33.8735 35.3203L35.016 32.4225C35.0255 32.3927 35.0435 32.3666 35.0705 32.3438C35.0975 32.3216 35.1345 32.3102 35.182 32.3102H35.6985C35.746 32.3102 35.782 32.3216 35.8075 32.3438C35.833 32.3661 35.852 32.3927 35.8645 32.4225L37.007 35.3203C37.01 35.3355 37.012 35.3488 37.012 35.3606C37.012 35.3877 37.0025 35.4099 36.9835 35.4279C36.9645 35.446 36.9425 35.455 36.917 35.455H36.5045C36.46 35.455 36.428 35.4455 36.4075 35.4256C36.387 35.4061 36.3735 35.3872 36.3675 35.3696L36.1445 34.8216H34.7365L34.514 35.3696C34.5075 35.3877 34.494 35.4061 34.4735 35.4256C34.453 35.445 34.4205 35.455 34.3765 35.455H33.964H33.9635ZM34.902 34.3049H35.978L35.4375 32.9165L34.902 34.3049Z" fill="#333333"/>
<path d="M39.1405 35.5C38.8465 35.5 38.5975 35.4512 38.394 35.354C38.19 35.2568 38.0345 35.1175 37.927 34.9364C37.8195 34.7553 37.7595 34.5372 37.747 34.2827C37.744 34.1599 37.742 34.0281 37.742 33.8873C37.742 33.7465 37.7435 33.6119 37.747 33.483C37.7595 33.2312 37.8205 33.0141 37.9295 32.8316C38.0385 32.6491 38.195 32.5088 38.399 32.4116C38.603 32.3145 38.85 32.2656 39.141 32.2656C39.356 32.2656 39.5485 32.2926 39.7195 32.3467C39.89 32.4007 40.0355 32.4747 40.1555 32.569C40.2755 32.6633 40.369 32.7733 40.435 32.8994C40.5015 33.025 40.536 33.1616 40.5395 33.308C40.5425 33.3351 40.534 33.3573 40.5135 33.3754C40.493 33.3934 40.4685 33.4024 40.44 33.4024H39.9895C39.9545 33.4024 39.926 33.3943 39.904 33.3777C39.882 33.3611 39.866 33.3336 39.8565 33.2948C39.806 33.0971 39.719 32.9625 39.596 32.8904C39.473 32.8184 39.3195 32.7828 39.1365 32.7828C38.9245 32.7828 38.7555 32.8387 38.629 32.9511C38.5025 33.0634 38.4345 33.2483 38.425 33.5062C38.4155 33.7517 38.4155 34.0035 38.425 34.2609C38.4345 34.5183 38.5025 34.7031 38.629 34.8155C38.7555 34.9278 38.9245 34.9838 39.1365 34.9838C39.3195 34.9838 39.474 34.9473 39.5985 34.8738C39.7235 34.8003 39.8095 34.6666 39.8565 34.4718C39.866 34.4301 39.882 34.4017 39.904 34.3865C39.926 34.3713 39.9545 34.3642 39.9895 34.3642H40.44C40.4685 34.3642 40.493 34.3732 40.5135 34.3912C40.534 34.4092 40.5425 34.4315 40.5395 34.4585C40.5365 34.6055 40.5015 34.7415 40.435 34.8672C40.3685 34.9928 40.2755 35.1032 40.1555 35.1976C40.035 35.2919 39.89 35.3659 39.7195 35.4199C39.549 35.4739 39.356 35.501 39.141 35.501L39.1405 35.5Z" fill="#333333"/>
<path d="M41.6905 35.455C41.659 35.455 41.632 35.4445 41.61 35.4237C41.588 35.4028 41.577 35.3772 41.577 35.3474V32.4225C41.577 32.3898 41.588 32.3628 41.61 32.3415C41.632 32.3206 41.659 32.3102 41.6905 32.3102H43.7765C43.8115 32.3102 43.8395 32.3206 43.862 32.3415C43.884 32.3623 43.895 32.3893 43.895 32.4225V32.7193C43.895 32.7491 43.884 32.7747 43.862 32.7956C43.84 32.8165 43.8115 32.8269 43.7765 32.8269H42.217V33.6223H43.672C43.707 33.6223 43.735 33.6323 43.7575 33.6517C43.7795 33.6712 43.7905 33.6977 43.7905 33.7304V34.0091C43.7905 34.0423 43.7795 34.0684 43.7575 34.0878C43.7355 34.1073 43.707 34.1172 43.672 34.1172H42.217V34.9392H43.8145C43.8495 34.9392 43.8775 34.9496 43.9 34.9705C43.922 34.9914 43.933 35.0184 43.933 35.0516V35.3483C43.933 35.3782 43.922 35.4038 43.9 35.4246C43.878 35.4455 43.8495 35.4559 43.8145 35.4559H41.691L41.6905 35.455Z" fill="#333333"/>
</g>
<defs>
<clipPath id="clip0_26_79">
<rect width="40" height="21" fill="white" transform="translate(5 14.5)"/>
</clipPath>
</defs>
</svg>
