<svg width="50" height="50" viewBox="0 0 50 50" fill="none" xmlns="http://www.w3.org/2000/svg">
<rect width="50" height="50" fill="#181818"/>
<path d="M10 23.8889C10 16.2183 16.2183 10 23.8889 10H38.8889C39.5025 10 40 10.4975 40 11.1111V26.1111C40 33.7817 33.7817 40 26.1111 40H23.8889C16.2183 40 10 33.7817 10 26.1111V23.8889Z" fill="#4714FF"/>
<path d="M24.6645 23.2851C24.7721 22.9623 25.2279 22.9623 25.3355 23.2851L25.9665 25.18C26.1054 25.5965 26.3394 25.975 26.65 26.2854C26.9605 26.5958 27.3391 26.8296 27.7558 26.9683L29.6497 27.5992C29.9725 27.7069 29.9725 28.1627 29.6497 28.2703L27.7548 28.9013C27.3382 29.0402 26.9598 29.2742 26.6494 29.5848C26.339 29.8953 26.1052 30.2739 25.9665 30.6905L25.3355 32.5845C25.3123 32.6552 25.2674 32.7167 25.2072 32.7604C25.1469 32.804 25.0744 32.8275 25 32.8275C24.9256 32.8275 24.8531 32.804 24.7928 32.7604C24.7326 32.7167 24.6877 32.6552 24.6645 32.5845L24.0335 30.6896C23.8947 30.2731 23.6608 29.8947 23.3505 29.5843C23.0401 29.2739 22.6617 29.0401 22.2452 28.9013L20.3503 28.2703C20.2796 28.2471 20.2181 28.2022 20.1744 28.1419C20.1308 28.0817 20.1073 28.0092 20.1073 27.9348C20.1073 27.8604 20.1308 27.7879 20.1744 27.7276C20.2181 27.6674 20.2796 27.6224 20.3503 27.5992L22.2452 26.9683C22.6617 26.8295 23.0401 26.5956 23.3505 26.2852C23.6608 25.9748 23.8947 25.5964 24.0335 25.18L24.6645 23.2851ZM20.8854 18.297C20.8995 18.2546 20.9265 18.2177 20.9627 18.1916C20.9988 18.1655 21.0423 18.1514 21.087 18.1514C21.1316 18.1514 21.1751 18.1655 21.2113 18.1916C21.2474 18.2177 21.2745 18.2546 21.2885 18.297L21.6671 19.4337C21.8363 19.9404 22.2335 20.3376 22.7402 20.5069L23.877 20.8854C23.9193 20.8995 23.9562 20.9265 23.9823 20.9627C24.0084 20.9988 24.0225 21.0423 24.0225 21.087C24.0225 21.1316 24.0084 21.1751 23.9823 21.2113C23.9562 21.2474 23.9193 21.2745 23.877 21.2885L22.7402 21.6671C22.4902 21.7501 22.2629 21.8903 22.0766 22.0766C21.8903 22.2629 21.7501 22.4902 21.6671 22.7402L21.2885 23.877C21.2745 23.9193 21.2474 23.9562 21.2113 23.9823C21.1751 24.0084 21.1316 24.0225 21.087 24.0225C21.0423 24.0225 20.9988 24.0084 20.9627 23.9823C20.9265 23.9562 20.8995 23.9193 20.8854 23.877L20.5068 22.7402C20.4239 22.4902 20.2836 22.2629 20.0973 22.0766C19.911 21.8903 19.6838 21.7501 19.4337 21.6671L18.297 21.2885C18.2546 21.2745 18.2177 21.2474 18.1916 21.2113C18.1655 21.1751 18.1514 21.1316 18.1514 21.087C18.1514 21.0423 18.1655 20.9988 18.1916 20.9627C18.2177 20.9265 18.2546 20.8995 18.297 20.8854L19.4337 20.5069C19.6838 20.4239 19.911 20.2836 20.0973 20.0973C20.2836 19.911 20.4239 19.6838 20.5068 19.4337L20.8854 18.297ZM27.8008 17.2708C27.8104 17.2429 27.8285 17.2188 27.8525 17.2017C27.8766 17.1846 27.9053 17.1754 27.9348 17.1754C27.9643 17.1754 27.993 17.1846 28.017 17.2017C28.0411 17.2188 28.0591 17.2429 28.0688 17.2708L28.3212 18.0279C28.4337 18.3664 28.6988 18.6315 29.0373 18.744L29.7945 18.9964C29.8223 19.0061 29.8465 19.0242 29.8636 19.0482C29.8807 19.0722 29.8898 19.101 29.8898 19.1304C29.8898 19.1599 29.8807 19.1887 29.8636 19.2127C29.8465 19.2367 29.8223 19.2548 29.7945 19.2645L29.0373 19.5168C28.8706 19.5726 28.7192 19.6663 28.5949 19.7906C28.4707 19.9148 28.377 20.0663 28.3212 20.2329L28.0688 20.9901C28.0591 21.018 28.0411 21.0421 28.017 21.0592C27.993 21.0763 27.9643 21.0855 27.9348 21.0855C27.9053 21.0855 27.8766 21.0763 27.8525 21.0592C27.8285 21.0421 27.8104 21.018 27.8008 20.9901L27.5484 20.2329C27.4926 20.0663 27.3989 19.9148 27.2746 19.7906C27.1504 19.6663 26.9989 19.5726 26.8323 19.5168L26.0761 19.2645C26.0482 19.2548 26.0241 19.2367 26.007 19.2127C25.9899 19.1887 25.9807 19.1599 25.9807 19.1304C25.9807 19.101 25.9899 19.0722 26.007 19.0482C26.0241 19.0242 26.0482 19.0061 26.0761 18.9964L26.8333 18.744C27.1717 18.6315 27.4368 18.3664 27.5493 18.0279L27.8008 17.2708Z" fill="white"/>
</svg>
