<svg width="50" height="50" viewBox="0 0 50 50" fill="none" xmlns="http://www.w3.org/2000/svg">
<rect width="50" height="50" fill="#213B3A"/>
<path d="M27.5064 22.2352L24.0419 28.2955H25.1112L28.1597 22.9421C28.1685 22.9269 28.1813 22.9142 28.1966 22.9053C28.212 22.8965 28.2294 22.8919 28.2471 22.8919C28.2649 22.8919 28.2823 22.8965 28.2976 22.9053C28.313 22.9142 28.3257 22.9269 28.3346 22.9421L31.4317 28.2955H33.6072L30.0377 22.2197C29.908 21.9993 29.7223 21.8168 29.4994 21.6905C29.2764 21.5641 29.024 21.4985 28.7676 21.5C28.5111 21.5016 28.2596 21.5704 28.0382 21.6994C27.8168 21.8284 27.6334 22.0132 27.5064 22.2352ZM21.9753 26.5097C21.9755 26.5305 21.9696 26.5508 21.9582 26.5682C21.9468 26.5856 21.9304 26.5992 21.9113 26.6073C21.8921 26.6154 21.8709 26.6176 21.8505 26.6137C21.83 26.6098 21.8112 26.5999 21.7964 26.5853L17.0079 21.8614C16.8441 21.7043 16.6377 21.5983 16.4141 21.5565C16.1906 21.5148 15.9597 21.539 15.7498 21.6263C15.5399 21.7135 15.3602 21.86 15.2328 22.0477C15.1054 22.2354 15.0358 22.4561 15.0327 22.6826V28.2993H15.925V23.4883C15.9253 23.4676 15.9317 23.4474 15.9433 23.4302C15.955 23.413 15.9714 23.3996 15.9906 23.3915C16.0098 23.3835 16.0309 23.3813 16.0514 23.385C16.0719 23.3888 16.0908 23.3984 16.1059 23.4128L20.8904 28.1715C21.054 28.3298 21.2606 28.4368 21.4846 28.4794C21.7086 28.522 21.9402 28.4982 22.1508 28.411C22.3614 28.3239 22.5417 28.1771 22.6694 27.9889C22.7972 27.8008 22.8668 27.5794 22.8696 27.3522V21.6929H21.9753V26.5097ZM41.2283 21.6929H35.2014V28.2955H37.1806V26.5911H41.2244C41.8634 26.5732 42.4702 26.3077 42.9159 25.8511C43.3615 25.3945 43.6108 24.7827 43.6108 24.1459C43.6108 23.509 43.3615 22.8973 42.9159 22.4406C42.4702 21.984 41.8634 21.7186 41.2244 21.7006L41.2283 21.6929ZM40.1668 25.7602H37.1844V22.5238H40.1668C40.3807 22.5238 40.5926 22.5658 40.7903 22.6473C40.9879 22.7289 41.1675 22.8484 41.3188 22.9992C41.4701 23.1499 41.5901 23.3288 41.672 23.5257C41.7539 23.7226 41.796 23.9337 41.796 24.1468C41.796 24.36 41.7539 24.571 41.672 24.7679C41.5901 24.9649 41.4701 25.1438 41.3188 25.2945C41.1675 25.4452 40.9879 25.5648 40.7903 25.6463C40.5926 25.7279 40.3807 25.7699 40.1668 25.7699V25.7602ZM12.6414 26.6008L7.69541 22.7698C7.67822 22.7572 7.66557 22.7394 7.65934 22.719C7.65312 22.6987 7.65365 22.6769 7.66085 22.6569C7.66806 22.6368 7.68156 22.6197 7.69935 22.6079C7.71713 22.5961 7.73825 22.5904 7.75957 22.5916H12.9505V21.6929H5.99816C5.79468 21.6832 5.59344 21.7387 5.42398 21.8514C5.25451 21.964 5.12575 22.1277 5.05659 22.3186C4.98742 22.5095 4.9815 22.7175 5.0397 22.9119C5.09789 23.1064 5.21713 23.2772 5.37992 23.3992L10.3803 27.2263C10.3975 27.2389 10.4101 27.2567 10.4164 27.2771C10.4226 27.2974 10.4221 27.3192 10.4149 27.3392C10.4076 27.3593 10.3941 27.3764 10.3764 27.3882C10.3586 27.4 10.3375 27.4057 10.3161 27.4045H5.19911V28.2955H12.0192C12.2201 28.3025 12.418 28.2461 12.5848 28.1343C12.7515 28.0225 12.8785 27.861 12.9475 27.673C13.0165 27.4849 13.0241 27.28 12.9691 27.0874C12.9141 26.8948 12.7994 26.7245 12.6414 26.6008ZM45 22.3592C44.9981 22.4887 44.9577 22.6147 44.8841 22.7215C44.8104 22.8282 44.7067 22.9108 44.586 22.959C44.4653 23.0071 44.333 23.0187 44.2058 22.9921C44.0785 22.9655 43.962 22.902 43.8709 22.8096C43.7797 22.7172 43.7181 22.6001 43.6936 22.4728C43.6692 22.3456 43.6831 22.2141 43.7336 22.0947C43.784 21.9753 43.8688 21.8735 43.9772 21.802C44.0856 21.7305 44.2128 21.6925 44.3428 21.6929C44.4299 21.6937 44.516 21.7115 44.5961 21.7454C44.6763 21.7793 44.7489 21.8286 44.8099 21.8904C44.871 21.9523 44.9191 22.0255 44.9517 22.106C44.9844 22.1864 45.0007 22.2724 45 22.3592ZM44.8892 22.3592C44.8895 22.2511 44.8578 22.1454 44.7978 22.0554C44.7379 21.9654 44.6525 21.8951 44.5525 21.8534C44.4525 21.8117 44.3423 21.8005 44.2359 21.8212C44.1294 21.8419 44.0316 21.8935 43.9546 21.9696C43.8777 22.0458 43.8251 22.1429 43.8036 22.2488C43.782 22.3546 43.7925 22.4645 43.8336 22.5644C43.8748 22.6644 43.9447 22.7499 44.0347 22.8103C44.1246 22.8706 44.2305 22.903 44.339 22.9034C44.4112 22.9044 44.4829 22.8911 44.5498 22.8642C44.6168 22.8372 44.6777 22.7972 44.7289 22.7465C44.7802 22.6958 44.8208 22.6355 44.8483 22.5689C44.8758 22.5024 44.8897 22.4311 44.8892 22.3592ZM44.4848 22.4502L44.6364 22.6613H44.5081L44.3856 22.4676H44.2029V22.6613H44.0921V22.0144H44.3565C44.5275 22.0144 44.6228 22.0957 44.6228 22.2391C44.6256 22.2844 44.6137 22.3294 44.5889 22.3674C44.564 22.4054 44.5275 22.4345 44.4848 22.4502ZM44.3565 22.3785C44.4576 22.3785 44.5178 22.3282 44.5178 22.241C44.5178 22.1539 44.4576 22.1074 44.3565 22.1074H44.2029V22.3785H44.3565Z" fill="white"/>
</svg>
